<?xml version="1.0" encoding="utf-8"?>
<!-- Generator: Adobe Illustrator 16.0.0, SVG Export Plug-In . SVG Version: 6.00 Build 0)  -->
<!DOCTYPE svg PUBLIC "-//W3C//DTD SVG 1.1//EN" "http://www.w3.org/Graphics/SVG/1.1/DTD/svg11.dtd">
<svg version="1.1" id="Ebene_1" xmlns="http://www.w3.org/2000/svg" xmlns:xlink="http://www.w3.org/1999/xlink" x="0px" y="0px"
	 width="297.64px" height="297.64px" viewBox="0 0 297.64 297.64" enable-background="new 0 0 297.64 297.64" xml:space="preserve">
<g>
	<path fill-rule="evenodd" clip-rule="evenodd" d="M3.087,268.835c1.52-7.541,6.275-12.941,11.574-18.14
		c13.522-13.265,26.866-26.711,40.299-40.066c0.671-0.668,1.512-1.164,2.564-1.96c-4.23-4.222-8.055-8.032-11.873-11.849
		c-5.056-5.054-5.048-7.876,0.026-12.954c3.836-3.838,7.654-7.693,11.517-11.504c4.002-3.947,7.31-3.937,11.316,0.031
		c1.282,1.27,2.451,2.653,3.892,4.226c1.708-1.847,3.19-3.403,4.621-5.006c13.112-14.687,26.26-29.342,39.306-44.088
		c9.257-10.463,18.253-21.16,27.578-31.563c16.889-18.843,33.959-37.523,50.907-56.314c8.797-9.752,17.563-19.535,26.192-29.435
		c2.519-2.89,5.394-4.125,9.158-4.279c17.304-0.708,34.602-1.57,51.9-2.399c0.739-0.035,1.468-0.294,2.201-0.449
		c1.905,0,3.811,0,5.715,0c4.637,2.031,5.547,3.579,5.283,8.813c-0.975,19.299-1.975,38.598-2.864,57.901
		c-0.139,2.995-1.287,5.223-3.474,7.172c-28.497,25.406-56.95,50.86-85.453,76.259c-15.397,13.721-30.922,27.299-46.286,41.056
		c-11.409,10.216-22.654,20.615-33.967,30.938c-0.271,0.247-0.485,0.557-0.863,0.999c1.496,1.67,2.985,3.25,4.381,4.908
		c3.108,3.692,3.038,6.894-0.331,10.336c-4.328,4.425-8.7,8.808-13.133,13.128c-3.484,3.396-6.978,3.356-10.48-0.09
		c-4.204-4.138-8.323-8.36-13.308-13.381c-0.633,1.096-0.996,2.181-1.718,2.907c-13.366,13.433-26.855,26.744-40.135,40.262
		c-5.359,5.455-10.908,10.31-18.828,11.399c-1.524,0-3.048,0-4.572,0c-3.821-1.551-7.932-2.629-11.396-4.761
		c-5.74-3.533-8.3-9.425-9.75-15.813C3.087,273.026,3.087,270.931,3.087,268.835z M93.083,196.516
		c0.579-0.775,1.16-1.793,1.959-2.593c34.327-34.361,68.672-68.705,103.028-103.038c0.934-0.934,1.923-1.872,3.044-2.546
		c2.577-1.549,5.821-1.005,7.813,1.139c2.014,2.167,2.244,5.346,0.447,7.864c-0.768,1.077-1.716,2.037-2.655,2.977
		c-34.2,34.218-68.405,68.432-102.638,102.62c-0.793,0.792-1.908,1.261-2.326,1.529c4.277,4.278,7.932,7.935,11.671,11.674
		c0.402-0.344,1.133-0.949,1.842-1.578c26.642-23.632,53.316-47.227,79.913-70.909c27.378-24.379,54.666-48.861,82.046-73.239
		c1.843-1.64,2.744-3.364,2.849-5.819c0.576-13.506,1.283-27.007,1.899-40.512c0.115-2.518,0.017-5.045,0.017-7.669
		c-2.773,0.129-5.523,0.25-8.271,0.385c-13.407,0.656-26.813,1.341-40.225,1.945c-1.945,0.088-3.327,0.777-4.635,2.242
		c-11.926,13.351-23.92,26.64-35.894,39.948c-33.118,36.811-66.238,73.62-99.35,110.436c-4.109,4.568-8.176,9.176-12.112,13.595
		C85.357,188.808,88.988,192.43,93.083,196.516z M113.713,236.168c-17.081-17.08-34.044-34.044-50.989-50.989
		c-1.648,1.643-3.395,3.382-5.017,4.999c16.846,16.749,33.759,33.564,50.795,50.503C110.091,239.306,111.944,237.7,113.713,236.168z
		 M25.382,258.213c-2.321,2.475-4.89,4.778-6.92,7.485c-3.015,4.019-2.386,9.764,1.054,13.354c3.306,3.45,8.682,4.307,12.475,1.53
		c3.025-2.214,5.655-4.969,8.116-7.175C35.098,268.239,30.354,263.344,25.382,258.213z M46.529,237.896
		c-3.68,3.631-7.443,7.344-11.021,10.875c4.708,4.655,9.544,9.437,14.501,14.338c3.62-3.419,7.468-7.051,11.139-10.519
		C56.134,247.55,51.262,242.653,46.529,237.896z M66.036,217.591c-3.546,3.326-7.177,6.732-10.387,9.745
		c5.197,5.188,10.083,10.064,15.091,15.063c3.296-3.11,6.85-6.464,10.312-9.73C75.934,227.529,71.042,222.617,66.036,217.591z"/>
	<path fill-rule="evenodd" clip-rule="evenodd" fill="#FFFFFF" d="M3.087,275.122c1.451,6.388,4.01,12.279,9.75,15.813
		c3.463,2.132,7.575,3.21,11.396,4.761c-7.049,0-14.097,0-21.146,0C3.087,288.838,3.087,281.979,3.087,275.122z"/>
</g>
</svg>
