<svg xmlns="http://www.w3.org/2000/svg" xmlns:xlink="http://www.w3.org/1999/xlink" width="215" height="519">
  <path x="85" stroke-opacity="1" stroke="none" version="1.1" stroke-width="2px" stroke-miterlimit="10" stroke-dasharray="none" stroke-linecap="butt" fill-rule="nonzero" y="476" fill-opacity="1" enable-background="new 0 0 595.28 841.89" xmlns:xlink="http://www.w3.org/1999/xlink" fill="#000000" xml:space="preserve" stroke-linejoin="miter" d="M85,477L128,477L127,476L127,518L128,517L85,517L86,518L86,476L85,477ZM85,475L84,475L84,476L84,518L84,519L85,519L128,519L129,519L129,518L129,476L129,475L128,475L85,475Z"/>
  <path version="1.1" fill-rule="nonzero" x="128" stroke-miterlimit="10" y="444" xml:space="preserve" enable-background="new 0 0 595.28 841.89" stroke-opacity="1" xmlns:xlink="http://www.w3.org/1999/xlink" stroke-linejoin="miter" fill="#000000" fill-opacity="1" stroke-linecap="butt" stroke-dasharray="none" stroke="none" stroke-width="2px" d="M128,445L171,445L170,444L170,518L171,517L128,517L129,518L129,444L128,445ZM128,443L127,443L127,444L127,518L127,519L128,519L171,519L172,519L172,518L172,444L172,443L171,443L128,443Z"/>
  <path xml:space="preserve" stroke-dasharray="none" stroke="none" x="171" fill="#000000" fill-rule="nonzero" version="1.1" stroke-width="2px" y="458" stroke-miterlimit="10" enable-background="new 0 0 595.28 841.89" stroke-opacity="1" stroke-linecap="butt" xmlns:xlink="http://www.w3.org/1999/xlink" stroke-linejoin="miter" fill-opacity="1" d="M171,459L214,459L213,458L213,518L214,517L171,517L172,518L172,458L171,459ZM171,457L170,457L170,458L170,518L170,519L171,519L214,519L215,519L215,518L215,458L215,457L214,457L171,457Z"/>
  <path xmlns:xlink="http://www.w3.org/1999/xlink" stroke-linecap="butt" fill="#000000" fill-rule="nonzero" fill-opacity="1" y="0px" version="1.1" enable-background="new 0 0 595.28 841.89" stroke-width="2px" stroke-opacity="1" stroke-dasharray="none" stroke="none" stroke-miterlimit="10" stroke-linejoin="miter" xml:space="preserve" points="165.242,421.106 150.134,413.752   135.511,422.028 137.837,405.387 125.447,394.037 141.992,391.106 148.958,375.815 156.858,390.646 173.553,392.545 161.89,404.641   " x="0px" d="M165.68,420.207L150.572,412.853L150.099,412.623L149.641,412.882L135.018,421.158L136.501,422.166L138.827,405.525L138.9,405.005L138.512,404.65L126.122,393.3L125.621,395.022L142.166,392.091L142.684,391.999L142.902,391.521L149.868,376.23L148.075,376.285L155.975,391.116L156.223,391.58L156.745,391.64L173.44,393.539L172.833,391.851L161.17,403.947L160.805,404.325L160.91,404.84L164.262,421.305L165.68,420.207ZM164.804,422.005L166.626,422.892L166.222,420.906L162.87,404.441L162.61,405.335L174.273,393.239L175.679,391.78L173.666,391.551L156.971,389.652L157.741,390.176L149.841,375.345L148.888,373.557L148.048,375.4L141.082,390.691L141.818,390.121L125.273,393.052L123.277,393.406L124.772,394.774L137.162,406.124L136.847,405.249L134.521,421.89L134.24,423.896L136.004,422.898L150.627,414.622L149.696,414.651L164.804,422.005Z"/>

</svg>
