<?xml version="1.0" encoding="utf-8"?>
<!-- Generator: Adobe Illustrator 16.0.0, SVG Export Plug-In . SVG Version: 6.00 Build 0)  -->
<!DOCTYPE svg PUBLIC "-//W3C//DTD SVG 1.1//EN" "http://www.w3.org/Graphics/SVG/1.1/DTD/svg11.dtd">
<svg version="1.1" id="Ebene_1" xmlns="http://www.w3.org/2000/svg" xmlns:xlink="http://www.w3.org/1999/xlink" x="0px" y="0px"
	 width="3300px" height="2200px" viewBox="0 0 3300 2200" enable-background="new 0 0 3300 2200" xml:space="preserve">
<g>
	
		<rect x="1419.51" y="676.048" fill="none" stroke="#1D1D1B" stroke-width="2" stroke-miterlimit="10" width="21.075" height="20.585"/>
	
		<rect x="1440.585" y="660.364" fill="none" stroke="#1D1D1B" stroke-width="2" stroke-miterlimit="10" width="21.075" height="36.269"/>
	
		<rect x="1461.66" y="667.227" fill="none" stroke="#1D1D1B" stroke-width="2" stroke-miterlimit="10" width="21.075" height="29.407"/>
	<polygon fill="none" stroke="#1D1D1B" stroke-width="2" stroke-miterlimit="10" points="1458.838,649.144 1451.434,645.54 
		1444.266,649.596 1445.406,641.439 1439.334,635.876 1447.443,634.44 1450.857,626.946 1454.729,634.214 1462.912,635.146 
		1457.196,641.074 	"/>
</g>
<g id="Notes">
	<rect id="artboard" x="0" fill="#FFFFFF" width="3300" height="2200"/>
	<line fill="none" stroke="#000000" stroke-width="0.5" x1="263" y1="292" x2="3036" y2="292"/>
	<text transform="matrix(1 0 0 1 262.9998 322)" font-family="'Arial-BoldMT'" font-size="13">Weight/Scale Variations</text>
	<text transform="matrix(1 0 0 1 534.0632 322)" font-family="'ArialMT'" font-size="13">Ultralight</text>
	<text transform="matrix(1 0 0 1 843.7771 322)" font-family="'ArialMT'" font-size="13">Thin</text>
	<text transform="matrix(1 0 0 1 1139.0349 322)" font-family="'ArialMT'" font-size="13">Light</text>
	<text transform="matrix(1 0 0 1 1427.0769 322)" font-family="'ArialMT'" font-size="13">Regular</text>
	<text transform="matrix(1 0 0 1 1723.4417 322)" font-family="'ArialMT'" font-size="13">Medium</text>
	<text transform="matrix(1 0 0 1 2016.1721 322)" font-family="'ArialMT'" font-size="13">Semibold</text>
	<text transform="matrix(1 0 0 1 2326.97 322)" font-family="'ArialMT'" font-size="13">Bold</text>
	<text transform="matrix(1 0 0 1 2618.2659 322)" font-family="'ArialMT'" font-size="13">Heavy</text>
	<text transform="matrix(1 0 0 1 2917.5051 322)" font-family="'ArialMT'" font-size="13">Black</text>
	<line fill="none" stroke="#000000" stroke-width="0.5" x1="263" y1="1903" x2="3036" y2="1903"/>
	<g transform="matrix(1 0 0 1 263 1933)">
		<path d="M9.248,0.83c4.307,0,7.891-3.574,7.891-7.881s-3.594-7.881-7.9-7.881c-4.297,0-7.871,3.574-7.871,7.881
			S4.951,0.83,9.248,0.83z M9.248-0.654c-3.545,0-6.377-2.842-6.377-6.396s2.822-6.396,6.367-6.396c3.555,0,6.406,2.842,6.406,6.396
			S12.803-0.654,9.248-0.654z M5.655-7.051c0,0.43,0.303,0.723,0.752,0.723h2.1v2.119c0,0.439,0.293,0.742,0.723,0.742
			c0.449,0,0.742-0.303,0.742-0.742v-2.119h2.119c0.439,0,0.742-0.293,0.742-0.723c0-0.439-0.303-0.742-0.742-0.742H9.971v-2.109
			c0-0.449-0.293-0.752-0.742-0.752c-0.43,0-0.723,0.303-0.723,0.752v2.109h-2.1C5.957-7.793,5.655-7.49,5.655-7.051z"/>
	</g>
	<g transform="matrix(1 0 0 1 281.867 1933)">
		<path d="M11.709,2.91c5.448,0,9.96-4.521,9.96-9.961c0-5.449-4.521-9.961-9.97-9.961c-5.439,0-9.951,4.512-9.951,9.961
			C1.749-1.611,6.27,2.91,11.709,2.91z M11.709,1.25c-4.609,0-8.291-3.691-8.291-8.301s3.672-8.301,8.281-8.301
			c4.608,0,8.31,3.691,8.31,8.301S16.318,1.25,11.709,1.25z M7.178-7.051c0,0.479,0.332,0.801,0.83,0.801h2.871v2.881
			c0,0.488,0.332,0.83,0.811,0.83c0.488,0,0.83-0.332,0.83-0.83V-6.25h2.881c0.488,0,0.829-0.322,0.829-0.801
			c0-0.488-0.341-0.83-0.829-0.83H12.52v-2.871c0-0.498-0.342-0.84-0.83-0.84c-0.479,0-0.811,0.342-0.811,0.84v2.871H8.008
			C7.51-7.881,7.178-7.539,7.178-7.051z"/>
	</g>
	<g transform="matrix(1 0 0 1 305.646 1933)">
		<path d="M14.97,5.664c6.963,0,12.725-5.762,12.725-12.715c0-6.963-5.771-12.725-12.734-12.725
			c-6.953,0-12.705,5.762-12.705,12.725C2.256-0.098,8.017,5.664,14.97,5.664z M14.97,3.848c-6.035,0-10.889-4.863-10.889-10.898
			c0-6.045,4.844-10.898,10.879-10.898c6.045,0,10.908,4.854,10.908,10.898C25.869-1.016,21.015,3.848,14.97,3.848z M9.199-7.051
			c0,0.518,0.371,0.879,0.918,0.879h3.945v3.955c0,0.537,0.371,0.918,0.889,0.918c0.537,0,0.908-0.371,0.908-0.918v-3.955h3.955
			c0.537,0,0.918-0.361,0.918-0.879c0-0.547-0.371-0.918-0.918-0.918h-3.955v-3.945c0-0.547-0.371-0.928-0.908-0.928
			c-0.518,0-0.889,0.381-0.889,0.928v3.945h-3.945C9.57-7.969,9.199-7.598,9.199-7.051z"/>
	</g>
	<text transform="matrix(1 0 0 1 262.9998 1953)" font-family="'Arial-BoldMT'" font-size="13">Design Variations</text>
	<text transform="matrix(1 0 0 1 262.9998 1971)" font-family="'ArialMT'" font-size="13">Symbols are supported in up to nine weights and three scales.</text>
	<text transform="matrix(1 0 0 1 262.9998 1989)" font-family="'ArialMT'" font-size="13">For optimal layout with text and other symbols, vertically align</text>
	<text transform="matrix(1 0 0 1 262.9998 2007)" font-family="'ArialMT'" font-size="13">symbols with the adjacent text.</text>
	<line fill="none" stroke="#00AEEF" stroke-width="0.5" x1="776" y1="1919" x2="776" y2="1933"/>
	<g transform="matrix(1 0 0 1 776 1933)">
		<path d="M3.311,0.156c0.518,0,0.771-0.195,0.957-0.742l1.26-3.447h5.762l1.26,3.447c0.186,0.547,0.439,0.742,0.947,0.742
			c0.518,0,0.85-0.313,0.85-0.801c0-0.166-0.029-0.322-0.107-0.527l-4.58-12.197c-0.225-0.596-0.625-0.898-1.25-0.898
			c-0.605,0-1.016,0.293-1.23,0.889L2.598-1.162C2.52-0.957,2.49-0.801,2.49-0.635C2.49-0.146,2.803,0.156,3.311,0.156z
			 M6.006-5.518l2.373-6.572h0.049l2.373,6.572H6.006z"/>
	</g>
	<line fill="none" stroke="#00AEEF" stroke-width="0.5" x1="793.197" y1="1919" x2="793.197" y2="1933"/>
	<text transform="matrix(1 0 0 1 775.9998 1953)" font-family="'Arial-BoldMT'" font-size="13">Margins</text>
	<text transform="matrix(1 0 0 1 775.9998 1971)" font-family="'ArialMT'" font-size="13">Leading and trailing margins on the left and right side of each symbol</text>
	<text transform="matrix(1 0 0 1 775.9998 1989)" font-family="'ArialMT'" font-size="13">can be adjusted by modifying the x-location of the margin guidelines.</text>
	<text transform="matrix(1 0 0 1 775.9998 2007)" font-family="'ArialMT'" font-size="13">Modifications are automatically applied proportionally to all</text>
	<text transform="matrix(1 0 0 1 775.9998 2025)" font-family="'ArialMT'" font-size="13">scales and weights.</text>
	<g transform="matrix(1 0 0 1 1289 1933)">
		<path d="M2.842,1.865l1.699,1.709c0.859,0.869,1.846,0.811,2.773-0.215L18.008-8.428l-0.967-0.977L6.426,2.275
			c-0.352,0.4-0.684,0.498-1.152,0.029L4.102,1.143C3.633,0.684,3.74,0.342,4.141-0.02L15.615-10.82l-0.977-0.967L3.047-0.898
			C2.061,0.02,1.983,0.996,2.842,1.865z M9.258-16.328c-0.42,0.41-0.449,0.986-0.215,1.377c0.234,0.361,0.693,0.596,1.338,0.43
			c1.465-0.342,2.988-0.4,4.414,0.537l-0.586,1.455c-0.342,0.83-0.166,1.416,0.371,1.963l2.295,2.314
			c0.488,0.488,0.898,0.508,1.465,0.41l1.064-0.195l0.664,0.674L20.03-6.807c-0.039,0.498,0.088,0.879,0.576,1.357l0.762,0.742
			c0.479,0.479,1.094,0.508,1.563,0.039l2.91-2.92c0.469-0.469,0.449-1.064-0.029-1.543l-0.771-0.762
			c-0.479-0.479-0.85-0.635-1.328-0.596l-0.576,0.049l-0.645-0.635l0.244-1.123c0.127-0.566-0.029-1.006-0.615-1.592l-2.197-2.188
			C16.582-19.297,12.149-19.219,9.258-16.328z M10.752-15.957c2.432-1.777,5.723-1.475,7.949,0.752l2.432,2.412
			c0.234,0.234,0.273,0.42,0.205,0.762l-0.322,1.484l1.504,1.484l0.986-0.059c0.254-0.01,0.332,0.01,0.527,0.205L24.61-8.34
			l-2.441,2.441l-0.576-0.576c-0.195-0.195-0.225-0.273-0.215-0.537l0.068-0.977l-1.494-1.484l-1.523,0.254
			c-0.322,0.068-0.469,0.039-0.713-0.195l-2.002-2.002c-0.254-0.234-0.283-0.4-0.127-0.771l0.879-2.09
			c-1.563-1.455-3.594-2.08-5.625-1.484C10.684-15.723,10.625-15.85,10.752-15.957z"/>
	</g>
	<text transform="matrix(1 0 0 1 1288.9998 1953)" font-family="'Arial-BoldMT'" font-size="13">Exporting</text>
	<text transform="matrix(1 0 0 1 1288.9998 1971)" font-family="'ArialMT'" font-size="13">Symbols should be outlined when exporting to ensure the</text>
	<text transform="matrix(1 0 0 1 1288.9998 1989)" font-family="'ArialMT'" font-size="13">design is preserved when submitting to Xcode.</text>
	<text id="template-version" transform="matrix(1 0 0 1 2952.4202 1933)" font-family="'ArialMT'" font-size="13">Template v.4.0</text>
	<text transform="matrix(1 0 0 1 2865.4573 1951)" font-family="'ArialMT'" font-size="13">Requires Xcode 14 or greater</text>
	<text id="descriptive-name" transform="matrix(1 0 0 1 2870.5413 1969)" font-family="'ArialMT'" font-size="13">Generated from custom.rank</text>
	<text transform="matrix(1 0 0 1 2912.4172 1987)" font-family="'ArialMT'" font-size="13">Typeset at 100 points</text>
	<text transform="matrix(1 0 0 1 262.9998 726)" font-family="'ArialMT'" font-size="13">Small</text>
	<text transform="matrix(1 0 0 1 262.9998 1156)" font-family="'ArialMT'" font-size="13">Medium</text>
	<text transform="matrix(1 0 0 1 262.9998 1586)" font-family="'ArialMT'" font-size="13">Large</text>
</g>
<g id="Guides">
	<g id="H-reference" transform="matrix(1 0 0 1 339 696)">
		<path fill="#27AAE1" d="M0.993,0h2.645l25.689-67.132h0.703v-3.327h-1.908L0.993,0z M11.689-24.479h35.293l-0.75-2.249H12.439
			L11.689-24.479z M55.119,0h2.645L30.638-70.459h-1.206v3.327L55.119,0z"/>
	</g>
	<line id="Baseline-S" fill="none" stroke="#27AAE1" stroke-width="0.5" x1="263" y1="696" x2="3036" y2="696"/>
	<line id="Capline-S" fill="none" stroke="#27AAE1" stroke-width="0.5" x1="263" y1="625.541" x2="3036" y2="625.541"/>
	<g id="H-reference_1_" transform="matrix(1 0 0 1 339 1126)">
		<path fill="#27AAE1" d="M0.993,0h2.645l25.689-67.132h0.703v-3.327h-1.908L0.993,0z M11.689-24.479h35.293l-0.75-2.249H12.439
			L11.689-24.479z M55.119,0h2.645L30.638-70.459h-1.206v3.327L55.119,0z"/>
	</g>
	<line id="Baseline-M" fill="none" stroke="#27AAE1" stroke-width="0.5" x1="263" y1="1126" x2="3036" y2="1126"/>
	<line id="Capline-M" fill="none" stroke="#27AAE1" stroke-width="0.5" x1="263" y1="1055.54" x2="3036" y2="1055.54"/>
	<g id="H-reference_2_" transform="matrix(1 0 0 1 339 1556)">
		<path fill="#27AAE1" d="M0.993,0h2.645l25.689-67.132h0.703v-3.327h-1.908L0.993,0z M11.689-24.479h35.293l-0.75-2.249H12.439
			L11.689-24.479z M55.119,0h2.645L30.638-70.459h-1.206v3.327L55.119,0z"/>
	</g>
	<line id="Baseline-L" fill="none" stroke="#27AAE1" stroke-width="0.5" x1="263" y1="1556" x2="3036" y2="1556"/>
	<line id="Capline-L" fill="none" stroke="#27AAE1" stroke-width="0.5" x1="263" y1="1485.54" x2="3036" y2="1485.54"/>
	
		<line id="left-margin-Ultralight-S" fill="none" stroke="#00AEEF" stroke-width="0.5" x1="516.35" y1="600.785" x2="516.35" y2="720.121"/>
	
		<line id="right-margin-Ultralight-S" fill="none" stroke="#00AEEF" stroke-width="0.5" x1="603.073" y1="600.785" x2="603.073" y2="720.121"/>
	
		<line id="left-margin-Regular-S" fill="none" stroke="#00AEEF" stroke-width="0.5" x1="1404.51" y1="600.785" x2="1404.51" y2="720.121"/>
	
		<line id="right-margin-Regular-S" fill="none" stroke="#00AEEF" stroke-width="0.5" x1="1495.18" y1="600.785" x2="1495.18" y2="720.121"/>
	
		<line id="left-margin-Black-S" fill="none" stroke="#00AEEF" stroke-width="0.5" x1="2885.5" y1="600.785" x2="2885.5" y2="720.121"/>
	
		<line id="right-margin-Black-S" fill="none" stroke="#00AEEF" stroke-width="0.5" x1="2981.3" y1="600.785" x2="2981.3" y2="720.121"/>
</g>
<g>
	<rect x="534.063" y="674.623" fill="none" stroke="#1D1D1B" stroke-miterlimit="10" width="21.075" height="20.585"/>
	<rect x="555.138" y="658.939" fill="none" stroke="#1D1D1B" stroke-miterlimit="10" width="21.075" height="36.269"/>
	<rect x="576.214" y="665.801" fill="none" stroke="#1D1D1B" stroke-miterlimit="10" width="21.075" height="29.407"/>
	<polygon fill="none" stroke="#1D1D1B" stroke-miterlimit="10" points="573.391,647.718 565.987,644.114 558.82,648.17 
		559.96,640.014 553.887,634.451 561.996,633.015 565.41,625.521 569.282,632.789 577.465,633.72 571.749,639.648 	"/>
</g>
<g>
	
		<rect x="1415.063" y="674.711" fill="none" stroke="#1D1D1B" stroke-width="2" stroke-miterlimit="10" width="21.075" height="20.585"/>
	
		<rect x="1436.138" y="659.028" fill="none" stroke="#1D1D1B" stroke-width="2" stroke-miterlimit="10" width="21.075" height="36.269"/>
	
		<rect x="1457.214" y="665.89" fill="none" stroke="#1D1D1B" stroke-width="2" stroke-miterlimit="10" width="21.075" height="29.407"/>
	<polygon fill="none" stroke="#1D1D1B" stroke-width="2" stroke-miterlimit="10" points="1454.391,647.807 1446.987,644.203 
		1439.82,648.259 1440.96,640.103 1434.887,634.54 1442.996,633.104 1446.41,625.609 1450.282,632.877 1458.465,633.809 
		1452.749,639.737 	"/>
</g>
<g>
	
		<rect x="2902.934" y="673.286" fill="none" stroke="#1D1D1B" stroke-width="5" stroke-miterlimit="10" width="21.075" height="20.585"/>
	
		<rect x="2924.009" y="657.603" fill="none" stroke="#1D1D1B" stroke-width="5" stroke-miterlimit="10" width="21.075" height="36.269"/>
	
		<rect x="2945.084" y="664.465" fill="none" stroke="#1D1D1B" stroke-width="5" stroke-miterlimit="10" width="21.074" height="29.407"/>
	<polygon fill="none" stroke="#1D1D1B" stroke-width="5" stroke-miterlimit="10" points="2942.262,646.382 2934.858,642.778 
		2927.69,646.834 2928.83,638.678 2922.758,633.115 2930.866,631.678 2934.281,624.184 2938.153,631.452 2946.336,632.384 
		2940.619,638.312 	"/>
</g>
</svg>
