<?xml version="1.0" encoding="utf-8"?>
<!-- Generator: Adobe Illustrator 16.0.0, SVG Export Plug-In . SVG Version: 6.00 Build 0)  -->
<!DOCTYPE svg PUBLIC "-//W3C//DTD SVG 1.1//EN" "http://www.w3.org/Graphics/SVG/1.1/DTD/svg11.dtd">
<svg version="1.1" id="Ebene_1" xmlns="http://www.w3.org/2000/svg" xmlns:xlink="http://www.w3.org/1999/xlink" x="0px" y="0px"
	 width="297.64px" height="368.5px" viewBox="0 0 297.64 368.5" enable-background="new 0 0 297.64 368.5" xml:space="preserve">
<g>
	<path fill-rule="evenodd" clip-rule="evenodd" d="M2.478,122.827c0-19.244-0.003-38.488,0.001-57.732
		c0.001-7.478,1.731-8.657,9.328-8.042c37.439,3.029,72.782-3.177,103.65-25.884c9.987-7.346,18.733-16.433,27.713-25.071
		c4.689-4.51,6.928-4.81,11.284,0.189c24.08,27.634,54.153,44.406,90.499,49.59c13.76,1.962,27.613,2.354,41.483,1.085
		c6.877-0.629,8.668,0.946,8.665,7.682c-0.021,36.863,0.168,73.729-0.145,110.59c-0.292,34.376-10.931,65.81-29.55,94.387
		c-25.98,39.875-61.412,69.325-103.674,90.653c-15.507,7.826-10.344,7.633-25.912-0.178c-29.595-14.85-56.23-33.839-78.892-58.131
		c-26.548-28.458-44.972-61.254-51.754-99.869c-1.868-10.633-2.299-21.584-2.59-32.411C2.166,154.076,2.478,138.447,2.478,122.827z
		 M12.998,67.808c0,1.765,0,2.871,0,3.978c0.001,33.364-0.042,66.728,0.044,100.091c0.015,5.986,0.223,12.01,0.921,17.948
		c4.117,35.055,18.278,65.832,40.382,93.075c24.841,30.617,56.028,53.07,91.179,70.385c2.383,1.174,4.208,1.16,6.591,0.028
		c34.932-16.597,65.003-39.56,89.721-69.268c28.021-33.678,43.195-72.193,42.803-116.472c-0.281-31.737-0.055-63.479-0.055-95.218
		c0-1.435,0-2.869,0-4.657c-53.438,3.29-99.4-11.722-135.809-51.936C112.19,56.015,66.516,71.659,12.998,67.808z"/>
	<path fill-rule="evenodd" clip-rule="evenodd" fill="#FFFFFF" d="M12.998,67.808c53.518,3.851,99.193-11.793,135.776-52.045
		c36.409,40.214,82.372,55.225,135.809,51.936c0,1.789,0,3.223,0,4.657c0,31.739-0.227,63.48,0.055,95.218
		c0.393,44.278-14.782,82.794-42.803,116.472c-24.718,29.708-54.789,52.671-89.721,69.268c-2.383,1.132-4.208,1.146-6.591-0.028
		c-35.151-17.314-66.337-39.768-91.179-70.385c-22.104-27.243-36.265-58.021-40.382-93.075c-0.698-5.938-0.906-11.962-0.921-17.948
		c-0.086-33.363-0.043-66.727-0.044-100.091C12.998,70.679,12.998,69.572,12.998,67.808z M44.283,99.083
		c3.388-0.376,6.358-0.708,9.328-1.038c34.174-3.792,64.826-16.341,92.043-37.263c2.466-1.896,3.884-1.851,6.343,0.015
		c24.896,18.898,52.76,30.972,83.699,35.761c5.862,0.907,11.759,1.591,17.842,2.405c0,11.804-0.025,23.289,0.013,34.772
		c0.015,4.311,2.021,6.854,5.215,6.858c3.218,0.004,5.358-2.607,5.371-6.807c0.039-12.872,0.046-25.744-0.002-38.615
		c-0.018-4.812-1.995-6.562-6.869-6.908c-6.094-0.433-12.22-0.792-18.245-1.736c-31.724-4.966-60.182-17.412-85.183-37.648
		c-4.368-3.535-5.579-3.278-10.146-0.001c-8.103,5.814-16.088,11.894-24.683,16.9C95.346,79.561,69.687,87.021,42.297,88.434
		c-7.825,0.403-8.88,1.609-8.88,9.564c0,23.994-0.05,47.987,0.038,71.981c0.02,5.489,0.222,11.008,0.836,16.457
		c2.849,25.271,11.837,48.301,25.94,69.368c21.493,32.108,50.596,55.547,84.229,73.841c3.097,1.684,5.67,1.681,8.741,0.032
		c14.453-7.752,28.336-16.409,40.812-27.053c8.824-7.527,17.078-15.73,25.457-23.768c2.716-2.604,2.688-5.767,0.466-7.944
		c-2.19-2.148-5.373-1.931-7.99,0.612c-1.433,1.393-2.777,2.876-4.168,4.312c-16.638,17.178-35.495,31.427-56.572,42.714
		c-1.112,0.596-2.999,0.963-3.972,0.43c-31.985-17.546-59.839-39.826-79.854-70.838c-13.497-20.913-22.145-43.669-22.828-68.72
		c-0.708-25.975-0.394-51.976-0.513-77.966C44.035,100.731,44.184,100.005,44.283,99.083z M242.921,243.511
		c0.569-0.371,2.452-0.915,3.05-2.104c2.835-5.638,5.504-11.378,7.849-17.235c1.059-2.646-0.399-4.992-3.035-5.982
		c-2.572-0.966-5.126-0.354-6.415,2.254c-2.636,5.337-5.157,10.741-7.436,16.238C235.499,240.143,238.184,243.585,242.921,243.511z
		 M253.205,179.046c0.022,0.002,0.045,0.004,0.068,0.007c-0.203,2.354-0.51,4.706-0.582,7.064c-0.085,2.771,1.076,4.939,3.938,5.554
		c2.901,0.622,5.669-0.357,6.089-3.405c0.793-5.762,1.216-11.619,1.172-17.432c-0.021-2.855-2.42-4.684-5.462-4.446
		c-2.779,0.218-4.548,1.913-4.776,4.829C253.445,173.822,253.35,176.436,253.205,179.046z"/>
	<path fill-rule="evenodd" clip-rule="evenodd" d="M44.283,99.083c-0.099,0.923-0.248,1.648-0.245,2.373
		c0.12,25.99-0.195,51.992,0.513,77.966c0.683,25.051,9.331,47.807,22.828,68.72c20.015,31.012,47.87,53.292,79.854,70.838
		c0.973,0.533,2.859,0.166,3.972-0.43c21.077-11.287,39.935-25.536,56.572-42.714c1.391-1.436,2.735-2.919,4.168-4.312
		c2.617-2.543,5.8-2.761,7.99-0.612c2.223,2.178,2.25,5.34-0.466,7.944c-8.379,8.037-16.633,16.24-25.457,23.768
		c-12.476,10.644-26.358,19.301-40.812,27.053c-3.071,1.648-5.645,1.651-8.741-0.032c-33.633-18.294-62.735-41.732-84.229-73.841
		c-14.103-21.067-23.091-44.098-25.94-69.368c-0.614-5.449-0.817-10.968-0.836-16.457c-0.088-23.994-0.039-47.987-0.038-71.981
		c0-7.955,1.056-9.161,8.88-9.564c27.39-1.412,53.048-8.873,76.711-22.655c8.595-5.006,16.58-11.086,24.683-16.9
		c4.566-3.276,5.778-3.534,10.146,0.001c25.001,20.236,53.459,32.682,85.183,37.648c6.025,0.944,12.151,1.303,18.245,1.736
		c4.874,0.346,6.852,2.096,6.869,6.908c0.048,12.871,0.041,25.743,0.002,38.615c-0.013,4.2-2.153,6.811-5.371,6.807
		c-3.193-0.003-5.2-2.547-5.215-6.858c-0.038-11.483-0.013-22.968-0.013-34.772c-6.083-0.814-11.979-1.498-17.842-2.405
		c-30.939-4.79-58.803-16.863-83.699-35.761c-2.458-1.866-3.877-1.911-6.343-0.015C118.436,81.704,87.785,94.252,53.61,98.045
		C50.641,98.375,47.671,98.706,44.283,99.083z"/>
	<path fill-rule="evenodd" clip-rule="evenodd" d="M242.921,243.511c-4.737,0.074-7.422-3.368-5.987-6.829
		c2.278-5.497,4.8-10.901,7.436-16.238c1.289-2.607,3.843-3.22,6.415-2.254c2.636,0.99,4.094,3.336,3.035,5.982
		c-2.345,5.857-5.014,11.598-7.849,17.235C245.373,242.596,243.49,243.14,242.921,243.511z"/>
	<path fill-rule="evenodd" clip-rule="evenodd" d="M253.205,179.046c0.145-2.61,0.24-5.224,0.446-7.83
		c0.229-2.916,1.997-4.611,4.776-4.829c3.042-0.238,5.44,1.59,5.462,4.446c0.044,5.813-0.379,11.67-1.172,17.432
		c-0.42,3.048-3.188,4.027-6.089,3.405c-2.861-0.614-4.022-2.782-3.938-5.554c0.072-2.358,0.379-4.71,0.582-7.064
		C253.25,179.051,253.228,179.049,253.205,179.046z"/>
</g>
</svg>
