<?xml version="1.0" encoding="utf-8"?>
<!-- Generator: Adobe Illustrator 16.0.0, SVG Export Plug-In . SVG Version: 6.00 Build 0)  -->
<!DOCTYPE svg PUBLIC "-//W3C//DTD SVG 1.1//EN" "http://www.w3.org/Graphics/SVG/1.1/DTD/svg11.dtd">
<svg version="1.1" id="Ebene_1" xmlns="http://www.w3.org/2000/svg" xmlns:xlink="http://www.w3.org/1999/xlink" x="0px" y="0px"
	 width="297.641px" height="368.5px" viewBox="0 0 297.641 368.5" enable-background="new 0 0 297.641 368.5" xml:space="preserve">
<g>
	<path d="M75.615,153.583c0-9.622-0.001-19.244,0.001-28.866c0-3.739,0.865-4.329,4.664-4.021
		c18.719,1.515,36.391-1.588,51.824-12.942c4.994-3.673,9.367-8.216,13.856-12.536c2.345-2.255,3.465-2.405,5.643,0.095
		c12.04,13.817,27.076,22.203,45.249,24.795c6.88,0.981,13.807,1.177,20.742,0.542c3.438-0.314,4.334,0.473,4.332,3.841
		c-0.011,18.431,0.084,36.864-0.072,55.295c-0.146,17.188-5.466,32.905-14.775,47.193c-12.989,19.938-30.706,34.662-51.837,45.326
		c-7.753,3.913-5.172,3.817-12.956-0.089c-14.797-7.425-28.115-16.92-39.445-29.065c-13.274-14.229-22.486-30.627-25.878-49.935
		c-0.934-5.316-1.149-10.792-1.295-16.205C75.459,169.207,75.615,161.393,75.615,153.583z M80.875,126.073c0,0.882,0,1.436,0,1.989
		c0.001,16.682-0.021,33.364,0.022,50.045c0.008,2.993,0.111,6.005,0.46,8.975c2.059,17.527,9.14,32.916,20.191,46.537
		c12.421,15.309,28.014,26.535,45.59,35.192c1.191,0.587,2.104,0.58,3.295,0.014c17.466-8.298,32.502-19.78,44.86-34.634
		c14.011-16.839,21.598-36.097,21.402-58.236c-0.141-15.869-0.028-31.74-0.028-47.609c0-0.718,0-1.435,0-2.329
		c-26.719,1.645-49.699-5.861-67.904-25.968C130.471,120.177,107.635,127.999,80.875,126.073z"/>
	<path d="M96.517,141.71c-0.049,0.461-0.124,0.824-0.122,1.187c0.06,12.995-0.098,25.996,0.256,38.983
		c0.342,12.525,4.666,23.903,11.414,34.36c10.008,15.506,23.936,26.646,39.928,35.419c0.486,0.267,1.429,0.083,1.985-0.216
		c10.539-5.643,19.968-12.768,28.286-21.356c0.695-0.718,1.368-1.46,2.084-2.156c1.309-1.271,2.9-1.38,3.995-0.306
		c1.111,1.089,1.125,2.67-0.232,3.972c-4.19,4.019-8.317,8.12-12.729,11.884c-6.238,5.322-13.18,9.65-20.406,13.527
		c-1.536,0.824-2.822,0.825-4.371-0.017c-16.816-9.146-31.367-20.866-42.114-36.92c-7.052-10.534-11.545-22.05-12.97-34.685
		c-0.308-2.725-0.408-5.484-0.418-8.229c-0.044-11.997-0.02-23.993-0.02-35.99c0-3.978,0.528-4.581,4.44-4.782
		c13.695-0.706,26.524-4.437,38.355-11.327c4.298-2.503,8.29-5.543,12.342-8.45c2.282-1.638,2.889-1.767,5.072,0
		c12.501,10.118,26.729,16.341,42.592,18.824c3.013,0.473,6.075,0.652,9.123,0.868c2.437,0.173,3.426,1.048,3.434,3.454
		c0.024,6.436,0.021,12.872,0.002,19.308c-0.007,2.1-1.077,3.405-2.686,3.403c-1.597-0.001-2.601-1.273-2.608-3.429
		c-0.019-5.742-0.006-11.484-0.006-17.386c-3.042-0.407-5.989-0.749-8.921-1.203c-15.47-2.395-29.401-8.432-41.85-17.88
		c-1.229-0.933-1.938-0.956-3.172-0.007c-13.607,10.46-28.934,16.734-46.021,18.631C99.697,141.356,98.212,141.522,96.517,141.71z"
		/>
	<path d="M195.837,213.924c-2.368,0.037-3.711-1.684-2.993-3.414c1.139-2.748,2.399-5.45,3.718-8.119
		c0.645-1.303,1.921-1.609,3.207-1.127c1.318,0.495,2.047,1.668,1.518,2.991c-1.172,2.929-2.507,5.799-3.924,8.618
		C197.062,213.467,196.121,213.739,195.837,213.924z"/>
	<path d="M200.978,181.692c0.073-1.305,0.12-2.612,0.224-3.915c0.114-1.458,0.998-2.305,2.388-2.415
		c1.521-0.119,2.72,0.795,2.731,2.223c0.021,2.907-0.189,5.835-0.587,8.716c-0.21,1.523-1.594,2.013-3.044,1.702
		c-1.431-0.307-2.011-1.391-1.969-2.777c0.036-1.179,0.189-2.354,0.291-3.532C201.001,181.694,200.99,181.693,200.978,181.692z"/>
</g>
</svg>
