<?xml version="1.0" encoding="utf-8"?>
<!-- Generator: Adobe Illustrator 16.0.0, SVG Export Plug-In . SVG Version: 6.00 Build 0)  -->
<!DOCTYPE svg PUBLIC "-//W3C//DTD SVG 1.1//EN" "http://www.w3.org/Graphics/SVG/1.1/DTD/svg11.dtd">
<svg version="1.1" id="Ebene_1" xmlns="http://www.w3.org/2000/svg" xmlns:xlink="http://www.w3.org/1999/xlink" x="0px" y="0px"
	 width="297.641px" height="297.641px" viewBox="0 0 297.641 297.641" enable-background="new 0 0 297.641 297.641"
	 xml:space="preserve">
<g>
	<path d="M75.723,212.812c0-1.333,0-2.666,0-4c0.888-3.786,3.389-6.46,6.063-9.086c6.659-6.536,13.231-13.161,19.835-19.754
		c0.356-0.355,0.687-0.736,1.099-1.181c-2.177-2.164-4.289-4.22-6.35-6.325c-1.681-1.717-1.722-3.441-0.075-5.149
		c2.214-2.296,4.472-4.552,6.767-6.766c1.701-1.642,3.425-1.595,5.147,0.077c0.742,0.72,1.38,1.547,2.133,2.402
		c3.741-4.137,7.27-8.038,10.793-11.936c-0.221-0.238-0.31-0.35-0.415-0.445c-13.819-12.397-27.631-24.803-41.477-37.172
		c-1.26-1.125-1.943-2.382-2.017-4.058c-0.29-6.608-0.598-13.216-0.938-19.822c-0.136-2.651-0.374-5.296-0.566-7.944
		c0-0.858,0-1.715,0-2.572c0.515-1.539,1.582-2.471,3.144-2.857c0.381,0,0.762,0,1.143,0c2.794,0.192,5.585,0.427,8.382,0.567
		c6.797,0.342,13.596,0.655,20.396,0.943c1.729,0.073,3.021,0.765,4.181,2.067c11.436,12.829,22.914,25.621,34.381,38.422
		c0.491,0.548,1,1.08,1.558,1.678c4.771-5.349,9.396-10.535,14.021-15.72c7.352-8.243,14.708-16.481,22.046-24.736
		c0.896-1.009,1.922-1.691,3.289-1.756c6.274-0.3,12.551-0.573,18.824-0.895c2.791-0.143,5.578-0.377,8.367-0.57
		c1.334,0,2.668,0,4.001,0c1.401,0.603,2.2,1.698,2.572,3.144c0,0.381,0,0.762,0,1.143c-0.089,0.508-0.233,1.014-0.258,1.525
		c-0.415,8.558-0.889,17.114-1.177,25.677c-0.093,2.772-1.038,4.758-3.151,6.624c-13.241,11.694-26.366,23.518-39.528,35.301
		c-0.441,0.395-0.86,0.813-1.304,1.234c3.637,4.064,7.15,7.99,10.823,12.095c0.854-0.936,1.566-1.843,2.408-2.607
		c1.453-1.32,3.123-1.442,4.492-0.155c2.566,2.412,5.057,4.91,7.479,7.467c1.241,1.311,1.15,3.007-0.045,4.383
		c-0.716,0.824-1.523,1.571-2.299,2.345c-1.469,1.466-2.941,2.927-4.457,4.433c6.759,6.752,13.334,13.375,19.975,19.934
		c2.905,2.869,5.972,5.584,7.041,9.762c0,1.333,0,2.666,0,4c-0.858,3.092-2.145,5.996-5.008,7.67
		c-1.792,1.049-3.891,1.572-5.852,2.332c-0.57,0-1.143,0-1.714,0c-4.613-0.48-7.581-3.547-10.605-6.615
		c-6.382-6.476-12.849-12.867-19.26-19.313c-0.36-0.361-0.54-0.9-0.883-1.49c-2.53,2.549-4.612,4.697-6.754,6.787
		c-1.671,1.631-3.364,1.663-5.034,0.055c-2.332-2.244-4.622-4.533-6.865-6.866c-1.551-1.612-1.535-3.3-0.016-4.933
		c0.739-0.795,1.607-1.47,2.525-2.295c-4.693-4.188-9.179-8.189-13.686-12.211c-4.59,4.104-9.044,8.084-13.525,12.09
		c0.715,0.809,1.31,1.488,1.912,2.16c1.959,2.189,1.941,3.742-0.099,5.801c-2.01,2.028-4.029,4.049-6.059,6.058
		c-2.067,2.047-3.693,2.043-5.753-0.012c-2.017-2.012-4.013-4.042-6.076-6.122c-0.463,0.441-0.844,0.791-1.21,1.157
		c-6.599,6.595-13.231,13.157-19.775,19.808c-2.63,2.674-5.323,5.143-9.139,5.941c-1.048,0-2.096,0-3.144,0
		c-3.168-0.729-6.073-1.994-7.918-4.795C77.1,216.226,76.5,214.461,75.723,212.812z M120.626,172.834
		c0.366-0.42,0.716-0.876,1.119-1.279c17.166-17.174,34.334-34.343,51.511-51.505c0.466-0.466,0.975-0.914,1.536-1.25
		c1.063-0.638,2.171-0.601,3.22,0.074c1.047,0.674,1.738,1.711,1.396,2.881c-0.313,1.072-0.969,2.163-1.762,2.958
		c-17.102,17.17-34.244,34.298-51.377,51.436c-0.396,0.396-0.777,0.811-1.065,1.112c1.863,1.88,3.656,3.688,5.537,5.587
		c0.493-0.429,1.066-0.916,1.629-1.415c14.206-12.607,28.425-25.2,42.61-37.831c12.764-11.364,25.494-22.766,38.214-34.179
		c0.435-0.391,0.816-1.074,0.851-1.644c0.414-6.792,0.77-13.589,1.107-20.385c0.072-1.454,0.01-2.913,0.01-4.472
		c-7.789,0.377-15.527,0.803-23.27,1.088c-1.781,0.065-2.922,0.773-4.073,2.056c-18.499,20.625-37.047,41.208-55.576,61.805
		c-5.791,6.438-11.561,12.893-17.3,19.293C116.811,169.029,118.628,170.842,120.626,172.834z M144.33,124.772
		c-0.215-0.26-0.356-0.445-0.511-0.617c-11.169-12.492-22.396-24.933-33.45-37.526c-1.77-2.016-3.618-2.648-6.111-2.731
		c-6.991-0.231-13.976-0.639-20.963-0.976c-0.307-0.014-0.616-0.001-0.979-0.001c0,0.758-0.026,1.372,0.004,1.984
		c0.37,7.557,0.727,15.115,1.167,22.669c0.038,0.649,0.506,1.422,1.01,1.874c13.437,12.04,26.905,24.045,40.37,36.053
		c0.202,0.18,0.444,0.313,0.715,0.501c2.436-2.748,4.824-5.443,7.334-8.274c-0.559-0.485-1.049-0.867-1.489-1.3
		c-3.968-3.91-7.938-7.817-11.885-11.749c-1.839-1.832-1.657-4.303,0.347-5.433c1.416-0.797,2.804-0.516,4.228,0.902
		c3.912,3.899,7.812,7.809,11.719,11.712c0.358,0.357,0.733,0.698,1.16,1.104C139.501,130.169,141.906,127.482,144.33,124.772z
		 M160.267,165.463c-2.195,1.859-4.42,3.74-6.711,5.679c4.575,4.095,8.988,8.045,13.291,11.895c1.922-1.915,3.736-3.723,5.504-5.485
		C168.412,173.609,164.42,169.615,160.267,165.463z M182.487,167.242c-3.532-3.936-7.139-7.953-10.827-12.062
		c-2.224,1.992-4.355,3.903-6.421,5.754c4.027,4.021,7.951,7.938,11.784,11.765C178.759,170.967,180.564,169.162,182.487,167.242z
		 M105.594,167.368c-0.853,0.884-1.688,1.751-2.427,2.517c8.346,8.313,16.758,16.692,25.238,25.139
		c0.801-0.703,1.711-1.502,2.579-2.265C122.451,184.226,114.014,175.789,105.594,167.368z M192.367,167.272
		c-8.542,8.542-16.988,16.989-25.51,25.512c0.822,0.736,1.72,1.542,2.232,2.001c8.491-8.373,17.019-16.784,25.531-25.18
		C193.976,168.937,193.154,168.086,192.367,167.272z M202.974,211.107c1.411,1.324,2.567,2.61,3.924,3.633
		c2.1,1.584,5.275,1.195,7.334-0.711c1.375-1.271,1.662-4.311,0.33-6.094c-1.114-1.494-2.531-2.762-3.855-4.176
		C208.063,206.271,205.594,208.619,202.974,211.107z M94.052,211.487c-2.487-2.589-4.838-5.036-7.043-7.332
		c-1.118,1.018-2.41,1.958-3.4,3.149c-1.765,2.127-1.432,5.212,0.574,7.08c1.961,1.827,4.667,1.82,6.811-0.061
		C92.131,213.326,93.215,212.267,94.052,211.487z M97.42,193.595c-1.857,1.852-3.702,3.689-5.442,5.424
		c2.346,2.322,4.761,4.71,7.235,7.158c1.8-1.702,3.715-3.514,5.527-5.228C102.183,198.383,99.771,195.959,97.42,193.595z
		 M198.259,206.095c2.456-2.467,4.892-4.91,7.285-7.313c-1.739-1.735-3.583-3.573-5.345-5.331c-2.436,2.408-4.918,4.863-7.321,7.239
		C194.661,202.482,196.499,204.328,198.259,206.095z M183.101,190.423c1.819,1.981,3.506,3.817,5.115,5.569
		c2.484-2.478,4.93-4.918,7.214-7.195c-1.671-1.664-3.403-3.389-5.174-5.15C187.86,185.916,185.349,188.293,183.101,190.423z
		 M107.134,183.568c-1.717,1.614-3.498,3.288-5.239,4.926c2.571,2.557,4.996,4.967,7.515,7.473c1.727-1.623,3.508-3.298,5.235-4.922
		C112.117,188.529,109.695,186.117,107.134,183.568z"/>
	<path fill="#FFFFFF" d="M211.17,222.529c1.96-0.76,4.059-1.283,5.851-2.332c2.862-1.674,4.149-4.578,5.008-7.67
		c0,3.334,0,6.668,0,10.002C218.408,222.529,214.789,222.529,211.17,222.529z"/>
	<path fill="#FFFFFF" d="M75.723,212.812c0.777,1.648,1.376,3.414,2.369,4.92c1.845,2.803,4.75,4.067,7.918,4.797
		c-3.429,0-6.858,0-10.287,0C75.723,219.29,75.723,216.052,75.723,212.812z"/>
	<path fill="#FFFFFF" d="M78.867,76.224c-1.562,0.387-2.628,1.319-3.144,2.858c0-0.953,0-1.905,0-2.857
		C76.771,76.224,77.82,76.224,78.867,76.224z"/>
	<path fill="#FFFFFF" d="M222.028,79.367c-0.372-1.445-1.171-2.541-2.572-3.144c0.857,0,1.715,0,2.572,0
		C222.028,77.272,222.028,78.32,222.028,79.367z"/>
</g>
</svg>
