<?xml version="1.0" encoding="utf-8"?>
<!-- Generator: Adobe Illustrator 16.0.0, SVG Export Plug-In . SVG Version: 6.00 Build 0)  -->
<!DOCTYPE svg PUBLIC "-//W3C//DTD SVG 1.1//EN" "http://www.w3.org/Graphics/SVG/1.1/DTD/svg11.dtd">
<svg version="1.1" id="Ebene_1" xmlns="http://www.w3.org/2000/svg" xmlns:xlink="http://www.w3.org/1999/xlink" x="0px" y="0px"
	 width="297.64px" height="297.64px" viewBox="0 0 297.64 297.64" enable-background="new 0 0 297.64 297.64" xml:space="preserve">
<g>
	<path fill-rule="evenodd" clip-rule="evenodd" d="M2.571,276.249c0-2.667,0-5.334,0-8.001c1.776-7.572,6.778-12.92,12.126-18.171
		c13.318-13.073,26.463-26.323,39.671-39.509c0.712-0.711,1.373-1.473,2.197-2.361c-4.354-4.328-8.577-8.441-12.7-12.652
		c-3.361-3.432-3.443-6.881-0.149-10.297c4.428-4.592,8.943-9.104,13.534-13.532c3.402-3.282,6.849-3.19,10.294,0.155
		c1.483,1.439,2.759,3.093,4.265,4.804c7.482-8.272,14.539-16.076,21.587-23.87c-0.441-0.477-0.619-0.701-0.83-0.891
		c-27.639-24.795-55.263-49.607-82.953-74.345c-2.52-2.251-3.886-4.765-4.034-8.116C4.999,56.247,4.384,43.031,3.703,29.819
		C3.43,24.517,2.955,19.226,2.571,13.93c0-1.715,0-3.429,0-5.144c1.03-3.078,3.163-4.941,6.287-5.715c0.762,0,1.524,0,2.286,0
		c5.588,0.384,11.171,0.854,16.764,1.135C41.502,4.889,55.1,5.516,68.699,6.092c3.457,0.146,6.042,1.53,8.362,4.133
		c22.871,25.659,45.827,51.242,68.763,76.844c0.982,1.096,2.001,2.159,3.115,3.357c9.542-10.699,18.792-21.07,28.042-31.441
		c14.703-16.486,29.416-32.962,44.092-49.472c1.793-2.017,3.844-3.382,6.577-3.512c12.55-0.601,25.103-1.146,37.65-1.789
		c5.583-0.286,11.157-0.754,16.735-1.14c2.667,0,5.334,0,8.001,0c2.804,1.205,4.399,3.397,5.144,6.287c0,0.762,0,1.524,0,2.286
		c-0.177,1.017-0.465,2.028-0.515,3.051c-0.83,17.116-1.778,34.229-2.353,51.354c-0.186,5.544-2.077,9.515-6.304,13.248
		c-26.481,23.388-52.733,47.036-79.057,70.603c-0.881,0.789-1.72,1.626-2.607,2.468c7.274,8.13,14.301,15.98,21.646,24.189
		c1.709-1.871,3.133-3.686,4.816-5.214c2.908-2.641,6.248-2.886,8.987-0.312c5.131,4.824,10.112,9.821,14.956,14.936
		c2.482,2.621,2.3,6.012-0.089,8.764c-1.433,1.65-3.049,3.143-4.599,4.69c-2.937,2.931-5.883,5.852-8.914,8.864
		c13.518,13.506,26.669,26.752,39.949,39.867c5.811,5.739,11.944,11.169,14.082,19.524c0,2.667,0,5.333,0,8.001
		c-1.716,6.182-4.29,11.992-10.015,15.34c-3.584,2.096-7.781,3.145-11.702,4.662c-1.143,0-2.286,0-3.429,0
		c-9.227-0.959-15.162-7.091-21.211-13.229c-12.763-12.951-25.696-25.734-38.52-38.626c-0.719-0.722-1.08-1.799-1.765-2.98
		c-5.06,5.097-9.226,9.396-13.508,13.575c-3.342,3.262-6.729,3.326-10.069,0.11c-4.663-4.488-9.243-9.068-13.73-13.733
		c-3.101-3.224-3.071-6.599-0.032-9.867c1.479-1.589,3.217-2.938,5.052-4.589c-9.387-8.374-18.358-16.379-27.372-24.42
		c-9.181,8.207-18.089,16.168-27.051,24.178c1.43,1.617,2.619,2.977,3.823,4.322c3.919,4.379,3.883,7.484-0.197,11.6
		c-4.021,4.057-8.058,8.099-12.117,12.116c-4.134,4.093-7.387,4.085-11.507-0.024c-4.033-4.023-8.027-8.084-12.152-12.243
		c-0.925,0.883-1.688,1.582-2.419,2.313c-13.198,13.191-26.463,26.315-39.55,39.615c-5.26,5.347-10.646,10.285-18.278,11.884
		c-2.096,0-4.191,0-6.287,0c-6.337-1.458-12.146-3.988-15.836-9.591C5.325,283.075,4.125,279.546,2.571,276.249z M92.376,196.291
		c0.731-0.841,1.432-1.752,2.238-2.559c34.331-34.347,68.668-68.686,103.021-103.011c0.932-0.931,1.951-1.828,3.073-2.501
		c2.125-1.276,4.342-1.201,6.439,0.148c2.093,1.348,3.476,3.422,2.792,5.763c-0.626,2.144-1.937,4.326-3.521,5.917
		c-34.204,34.339-68.489,68.596-102.756,102.873c-0.793,0.793-1.555,1.62-2.131,2.223c3.726,3.76,7.312,7.377,11.074,11.173
		c0.986-0.856,2.133-1.83,3.259-2.829c28.411-25.215,56.85-50.4,85.221-75.662c25.526-22.729,50.988-45.532,76.427-68.358
		c0.871-0.782,1.633-2.149,1.702-3.288c0.827-13.584,1.538-27.177,2.213-40.77c0.145-2.907,0.021-5.826,0.021-8.944
		c-15.577,0.754-31.054,1.605-46.54,2.176c-3.562,0.131-5.844,1.547-8.146,4.112c-36.998,41.25-74.093,82.415-111.151,123.61
		c-11.581,12.875-23.122,25.786-34.6,38.588C84.747,188.682,88.38,192.305,92.376,196.291z M139.785,100.168
		c-0.43-0.521-0.713-0.89-1.022-1.235c-22.337-24.984-44.791-49.865-66.899-75.051c-3.539-4.032-7.236-5.297-12.223-5.462
		c-13.981-0.462-27.951-1.279-41.926-1.951c-0.615-0.029-1.233-0.003-1.957-0.003c0,1.515-0.052,2.744,0.008,3.968
		c0.741,15.115,1.454,30.231,2.333,45.338c0.076,1.298,1.013,2.844,2.021,3.748c26.874,24.08,53.809,48.091,80.74,72.107
		c0.403,0.359,0.888,0.626,1.431,1.003c4.871-5.496,9.648-10.886,14.668-16.549c-1.118-0.971-2.099-1.734-2.978-2.6
		c-7.936-7.819-15.876-15.635-23.769-23.497c-3.678-3.664-3.315-8.606,0.694-10.865c2.831-1.595,5.608-1.032,8.455,1.805
		c7.824,7.797,15.624,15.617,23.439,23.423c0.716,0.715,1.465,1.397,2.32,2.208C130.126,110.962,134.937,105.587,139.785,100.168z
		 M171.66,181.549c-4.393,3.717-8.84,7.479-13.424,11.357c9.151,8.189,17.979,16.09,26.582,23.789
		c3.845-3.83,7.473-7.445,11.01-10.97C187.949,197.843,179.963,189.854,171.66,181.549z M216.098,185.107
		c-7.065-7.871-14.277-15.906-21.653-24.123c-4.448,3.985-8.712,7.806-12.843,11.508c8.055,8.041,15.903,15.876,23.568,23.528
		C208.641,192.555,212.253,188.946,216.098,185.107z M62.311,185.359c-1.706,1.769-3.377,3.501-4.854,5.032
		c16.691,16.626,33.516,33.386,50.475,50.278c1.603-1.406,3.423-3.004,5.159-4.529C96.026,219.075,79.152,202.2,62.311,185.359z
		 M235.857,185.168c-17.083,17.084-33.974,33.977-51.019,51.023c1.644,1.473,3.44,3.083,4.466,4.003
		c16.982-16.748,34.037-33.569,51.063-50.361C239.077,188.498,237.432,186.795,235.857,185.168z M257.073,272.839
		c2.822,2.646,5.135,5.219,7.847,7.264c4.201,3.169,10.55,2.391,14.669-1.422c2.749-2.543,3.324-8.621,0.661-12.188
		c-2.23-2.987-5.063-5.524-7.713-8.352C267.251,263.165,262.31,267.862,257.073,272.839z M39.229,273.597
		c-4.973-5.177-9.677-10.073-14.087-14.664c-2.235,2.036-4.82,3.916-6.799,6.299c-3.531,4.255-2.864,10.424,1.148,14.161
		c3.923,3.654,9.335,3.64,13.621-0.123C35.386,277.274,37.553,275.157,39.229,273.597z M45.964,237.814
		c-3.715,3.703-7.405,7.38-10.884,10.848c4.692,4.643,9.521,9.42,14.47,14.317c3.6-3.405,7.43-7.028,11.053-10.456
		C55.491,247.388,50.667,242.541,45.964,237.814z M247.641,262.814c4.913-4.933,9.783-9.82,14.571-14.627
		c-3.478-3.469-7.167-7.147-10.689-10.661c-4.873,4.817-9.837,9.726-14.643,14.478C240.446,255.587,244.122,259.28,247.641,262.814z
		 M217.326,231.469c3.64,3.962,7.014,7.635,10.231,11.138c4.968-4.955,9.861-9.835,14.428-14.39
		c-3.343-3.328-6.807-6.777-10.348-10.302C226.844,222.455,221.824,227.208,217.326,231.469z M65.392,217.76
		c-3.433,3.228-6.995,6.576-10.477,9.85c5.141,5.113,9.991,9.936,15.03,14.946c3.454-3.246,7.017-6.595,10.471-9.843
		C75.358,227.68,70.514,222.857,65.392,217.76z"/>
	<path fill-rule="evenodd" clip-rule="evenodd" fill="#FFFFFF" d="M273.463,295.68c3.921-1.518,8.118-2.566,11.702-4.662
		c5.725-3.348,8.299-9.158,10.015-15.34c0,6.667,0,13.334,0,20.002C287.94,295.68,280.702,295.68,273.463,295.68z"/>
	<path fill-rule="evenodd" clip-rule="evenodd" fill="#FFFFFF" d="M2.571,276.249c1.554,3.297,2.753,6.826,4.738,9.84
		c3.69,5.603,9.5,8.133,15.836,9.591c-6.858,0-13.716,0-20.574,0C2.571,289.203,2.571,282.726,2.571,276.249z"/>
	<path fill-rule="evenodd" clip-rule="evenodd" fill="#FFFFFF" d="M8.858,3.071C5.734,3.845,3.601,5.709,2.571,8.787
		c0-1.905,0-3.81,0-5.715C4.667,3.071,6.763,3.071,8.858,3.071z"/>
	<path fill-rule="evenodd" clip-rule="evenodd" fill="#FFFFFF" d="M295.18,9.358c-0.744-2.89-2.34-5.082-5.144-6.287
		c1.715,0,3.43,0,5.144,0C295.18,5.167,295.18,7.263,295.18,9.358z"/>
	<path fill-rule="evenodd" clip-rule="evenodd" fill="#FFFFFF" d="M92.376,196.291c-3.996-3.986-7.629-7.609-11.366-11.338
		c11.478-12.803,23.019-25.714,34.6-38.588c37.059-41.196,74.153-82.36,111.151-123.61c2.302-2.565,4.584-3.981,8.146-4.112
		c15.486-0.57,30.963-1.422,46.54-2.176c0,3.118,0.124,6.037-0.021,8.944c-0.675,13.593-1.386,27.186-2.213,40.77
		c-0.069,1.139-0.831,2.506-1.702,3.288c-25.438,22.827-50.9,45.63-76.427,68.358c-28.371,25.261-56.81,50.447-85.221,75.662
		c-1.125,0.999-2.272,1.973-3.259,2.829c-3.762-3.796-7.348-7.413-11.074-11.173c0.576-0.603,1.338-1.43,2.131-2.223
		c34.267-34.277,68.552-68.534,102.756-102.873c1.585-1.591,2.896-3.773,3.521-5.917c0.684-2.34-0.699-4.415-2.792-5.763
		c-2.098-1.35-4.314-1.424-6.439-0.148c-1.122,0.673-2.142,1.57-3.073,2.501c-34.353,34.325-68.69,68.665-103.021,103.011
		C93.808,194.539,93.107,195.45,92.376,196.291z"/>
	<path fill-rule="evenodd" clip-rule="evenodd" fill="#FFFFFF" d="M139.785,100.168c-4.849,5.418-9.659,10.794-14.665,16.388
		c-0.854-0.812-1.604-1.493-2.32-2.208c-7.815-7.806-15.615-15.626-23.439-23.423c-2.846-2.837-5.624-3.399-8.455-1.805
		c-4.009,2.258-4.372,7.201-0.694,10.865c7.893,7.862,15.833,15.678,23.769,23.497c0.879,0.866,1.86,1.629,2.978,2.6
		c-5.02,5.663-9.797,11.053-14.668,16.549c-0.543-0.376-1.028-0.644-1.431-1.003c-26.931-24.016-53.866-48.027-80.74-72.107
		c-1.009-0.904-1.946-2.449-2.021-3.748c-0.88-15.107-1.592-30.224-2.333-45.338c-0.061-1.224-0.008-2.454-0.008-3.968
		c0.724,0,1.341-0.026,1.957,0.003c13.975,0.672,27.945,1.489,41.926,1.951c4.987,0.165,8.684,1.43,12.223,5.462
		c22.108,25.186,44.562,50.067,66.899,75.051C139.072,99.279,139.355,99.648,139.785,100.168z"/>
	<path fill-rule="evenodd" clip-rule="evenodd" fill="#FFFFFF" d="M171.66,181.549c8.303,8.305,16.289,16.294,24.168,24.177
		c-3.537,3.524-7.165,7.14-11.01,10.97c-8.603-7.699-17.431-15.6-26.582-23.789C162.82,189.027,167.268,185.266,171.66,181.549z"/>
	<path fill-rule="evenodd" clip-rule="evenodd" fill="#FFFFFF" d="M216.098,185.107c-3.845,3.839-7.457,7.447-10.928,10.913
		c-7.665-7.652-15.514-15.487-23.568-23.528c4.131-3.702,8.395-7.522,12.843-11.508C201.82,169.201,209.032,177.236,216.098,185.107
		z"/>
	<path fill-rule="evenodd" clip-rule="evenodd" fill="#FFFFFF" d="M62.311,185.359c16.841,16.841,33.715,33.716,50.78,50.781
		c-1.736,1.525-3.557,3.123-5.159,4.529c-16.958-16.893-33.783-33.652-50.475-50.278C58.934,188.86,60.605,187.128,62.311,185.359z"
		/>
	<path fill-rule="evenodd" clip-rule="evenodd" fill="#FFFFFF" d="M235.857,185.168c1.574,1.627,3.22,3.33,4.511,4.665
		c-17.026,16.792-34.081,33.613-51.063,50.361c-1.025-0.92-2.822-2.53-4.466-4.003C201.884,219.145,218.774,202.252,235.857,185.168
		z"/>
	<path fill-rule="evenodd" clip-rule="evenodd" fill="#FFFFFF" d="M257.073,272.839c5.236-4.977,10.178-9.674,15.464-14.698
		c2.65,2.827,5.482,5.364,7.713,8.352c2.663,3.567,2.088,9.646-0.661,12.188c-4.119,3.813-10.468,4.591-14.669,1.422
		C262.208,278.058,259.896,275.484,257.073,272.839z"/>
	<path fill-rule="evenodd" clip-rule="evenodd" fill="#FFFFFF" d="M39.229,273.597c-1.677,1.561-3.844,3.678-6.117,5.673
		c-4.286,3.763-9.698,3.777-13.621,0.123c-4.012-3.737-4.679-9.906-1.148-14.161c1.979-2.383,4.564-4.263,6.799-6.299
		C29.553,263.523,34.256,268.42,39.229,273.597z"/>
	<path fill-rule="evenodd" clip-rule="evenodd" fill="#FFFFFF" d="M45.964,237.814c4.704,4.727,9.527,9.573,14.638,14.709
		c-3.623,3.428-7.453,7.051-11.053,10.456c-4.949-4.897-9.778-9.675-14.47-14.317C38.559,245.194,42.249,241.518,45.964,237.814z"/>
	<path fill-rule="evenodd" clip-rule="evenodd" fill="#FFFFFF" d="M247.641,262.814c-3.519-3.534-7.194-7.228-10.761-10.811
		c4.806-4.752,9.77-9.66,14.643-14.478c3.522,3.514,7.212,7.192,10.689,10.661C257.424,252.994,252.554,257.882,247.641,262.814z"/>
	<path fill-rule="evenodd" clip-rule="evenodd" fill="#FFFFFF" d="M217.326,231.469c4.498-4.261,9.518-9.014,14.312-13.554
		c3.541,3.524,7.005,6.974,10.348,10.302c-4.566,4.555-9.46,9.435-14.428,14.39C224.34,239.104,220.966,235.431,217.326,231.469z"/>
	<path fill-rule="evenodd" clip-rule="evenodd" fill="#FFFFFF" d="M65.392,217.76c5.122,5.098,9.966,9.92,15.024,14.953
		c-3.454,3.248-7.017,6.597-10.471,9.843c-5.039-5.011-9.889-9.833-15.03-14.946C58.397,224.336,61.959,220.987,65.392,217.76z"/>
</g>
</svg>
